<svg width="105" height="105" viewBox="0 0 105 105" fill="none" xmlns="http://www.w3.org/2000/svg">
<path d="M17.5 26.25H87.5L80.5875 88.4625C80.3506 90.6035 79.3322 92.5819 77.7274 94.0188C76.1225 95.4557 74.0441 96.2501 71.89 96.25H33.11C30.9559 96.2501 28.8775 95.4557 27.2726 94.0188C25.6678 92.5819 24.6494 90.6035 24.4125 88.4625L17.5 26.25Z" stroke="white" stroke-width="5" stroke-linecap="round" stroke-linejoin="round"/>
<path d="M32.1344 13.7681C32.842 12.2674 33.9618 10.9987 35.3631 10.1102C36.7645 9.22173 38.3895 8.74998 40.0488 8.75H64.9512C66.6112 8.74915 68.2372 9.22051 69.6394 10.1091C71.0415 10.9976 72.162 12.2667 72.87 13.7681L78.75 26.25H26.25L32.1344 13.7681Z" stroke="white" stroke-width="5" stroke-linecap="round" stroke-linejoin="round"/>
<path d="M8.75 26.25H96.25" stroke="white" stroke-width="5" stroke-linecap="round" stroke-linejoin="round"/>
<path d="M43.75 48.125V70" stroke="white" stroke-width="5" stroke-linecap="round" stroke-linejoin="round"/>
<path d="M61.25 48.125V70" stroke="white" stroke-width="5" stroke-linecap="round" stroke-linejoin="round"/>
</svg>
