<svg width="117" height="117" viewBox="0 0 117 117" fill="none" xmlns="http://www.w3.org/2000/svg">
<path d="M61.8893 1.22854C60.8658 0.4323 59.606 -1.50186e-07 58.3092 -1.46918e-07C57.0123 -1.43651e-07 55.7525 0.4323 54.729 1.22854L6.7522 38.5464C4.64818 40.1831 2.94604 42.279 1.77579 44.6741C0.605548 47.0692 -0.00184507 49.7 4.34264e-06 52.3657L4.47516e-06 104.961C4.48295e-06 108.053 1.22866 111.02 3.41567 113.207C5.60269 115.394 8.56892 116.622 11.6618 116.622L34.9855 116.622C38.0784 116.622 41.0446 115.394 43.2316 113.207C45.4187 111.02 46.6473 108.053 46.6473 104.961L46.6473 69.975L69.971 69.975L69.971 104.961C69.971 108.053 71.1996 111.02 73.3867 113.207C75.5737 115.394 78.5399 116.622 81.6328 116.622L104.956 116.622C108.049 116.622 111.016 115.394 113.203 113.207C115.39 111.02 116.618 108.053 116.618 104.961L116.618 52.3657C116.619 49.699 116.01 47.0676 114.837 44.6725C113.665 42.2773 111.961 40.1819 109.854 38.5464L61.8893 1.22854Z" fill="#3894FF"/>
</svg>
