<svg width="132" height="132" viewBox="0 0 132 132" fill="none" xmlns="http://www.w3.org/2000/svg">
<g clip-path="url(#clip0_1233:33)">
<mask id="path-1-inside-1_1233:33" fill="white">
<path fill-rule="evenodd" clip-rule="evenodd" d="M74.7069 22.5C75.5293 21.0781 76.0001 19.4274 76.0001 17.6667C76.0001 12.3279 71.6722 8 66.3334 8C60.9946 8 56.6667 12.3279 56.6667 17.6667C56.6667 19.4274 57.1374 21.0781 57.9599 22.5H74.7069Z"/>
</mask>
<path d="M74.7069 22.5V35.5H82.2052L85.9598 29.0093L74.7069 22.5ZM57.9599 22.5L46.707 29.0093L50.4616 35.5H57.9599V22.5ZM63.0001 17.6667C63.0001 17.0811 63.1627 16.4941 63.454 15.9906L85.9598 29.0093C87.896 25.6621 89.0001 21.7736 89.0001 17.6667H63.0001ZM66.3334 21C64.4925 21 63.0001 19.5076 63.0001 17.6667H89.0001C89.0001 5.14822 78.8519 -5 66.3334 -5V21ZM69.6667 17.6667C69.6667 19.5076 68.1743 21 66.3334 21V-5C53.8149 -5 43.6667 5.14822 43.6667 17.6667H69.6667ZM69.2128 15.9906C69.5041 16.4941 69.6667 17.0811 69.6667 17.6667H43.6667C43.6667 21.7736 44.7708 25.6621 46.707 29.0093L69.2128 15.9906ZM57.9599 35.5H74.7069V9.49995H57.9599V35.5Z" fill="#647387" mask="url(#path-1-inside-1_1233:33)"/>
<mask id="path-3-inside-2_1233:33" fill="white">
<path fill-rule="evenodd" clip-rule="evenodd" d="M105 53.9168L105 95.0003H27.6667V53.9354C27.6667 53.9292 27.6667 53.923 27.6667 53.9168C27.6667 53.9106 27.6667 53.9044 27.6667 53.8982V51.5002H27.7512C29.0776 32.6066 45.8445 17.6667 66.3334 17.6667C86.8222 17.6667 103.589 32.6066 104.916 51.5002H105L105 53.9168Z"/>
</mask>
<path d="M105 53.9168L92.0001 53.9167L92.0001 53.9168L105 53.9168ZM105 95.0003V108H118L118 95.0003L105 95.0003ZM27.6667 95.0003H14.6667V108H27.6667V95.0003ZM27.6667 53.9354L40.6667 53.9354L40.6667 53.9284L27.6667 53.9354ZM27.6667 53.8982L40.6667 53.9051V53.8982H27.6667ZM27.6667 51.5002V38.5002H14.6667V51.5002H27.6667ZM27.7512 51.5002V64.5002H39.8705L40.7193 52.4107L27.7512 51.5002ZM104.916 51.5002L91.9474 52.4107L92.7962 64.5002H104.916V51.5002ZM105 51.5002L118 51.5003L118 38.5002H105V51.5002ZM92.0001 53.9168L92.0001 95.0003L118 95.0003L118 53.9168L92.0001 53.9168ZM105 82.0003H27.6667V108H105V82.0003ZM40.6667 95.0003V53.9354H14.6667V95.0003H40.6667ZM40.6667 53.9284C40.6667 53.9246 40.6667 53.9207 40.6667 53.9168H14.6667C14.6667 53.9253 14.6667 53.9339 14.6667 53.9424L40.6667 53.9284ZM40.6667 53.9168C40.6667 53.9129 40.6667 53.909 40.6667 53.9051L14.6667 53.8912C14.6667 53.8997 14.6667 53.9083 14.6667 53.9168H40.6667ZM40.6667 53.8982V51.5002H14.6667V53.8982H40.6667ZM27.6667 64.5002H27.7512V38.5002H27.6667V64.5002ZM40.7193 52.4107C41.5218 40.9791 51.9969 30.6667 66.3334 30.6667V4.66675C39.6921 4.66675 16.6334 24.2341 14.7831 50.5898L40.7193 52.4107ZM66.3334 30.6667C80.6698 30.6667 91.1449 40.9791 91.9474 52.4107L117.884 50.5898C116.033 24.2341 92.9746 4.66675 66.3334 4.66675V30.6667ZM104.916 64.5002H105V38.5002H104.916V64.5002ZM92.0001 51.5002L92.0001 53.9167L118 53.9168L118 51.5003L92.0001 51.5002Z" fill="#647387" mask="url(#path-3-inside-2_1233:33)"/>
<mask id="path-5-inside-3_1233:33" fill="white">
<path fill-rule="evenodd" clip-rule="evenodd" d="M54.2381 109.5C52.7184 111.793 51.8333 114.543 51.8333 117.5C51.8333 125.508 58.3252 132 66.3334 132C74.3415 132 80.8334 125.508 80.8334 117.5C80.8334 114.543 79.9483 111.793 78.4286 109.5H54.2381ZM63.8334 117.5C63.8334 116.119 64.9527 115 66.3334 115C67.7141 115 68.8333 116.119 68.8333 117.5C68.8333 118.881 67.7141 120 66.3334 120C64.9527 120 63.8334 118.881 63.8334 117.5Z"/>
</mask>
<path d="M54.2381 109.5V96.5H47.2579L43.4019 102.318L54.2381 109.5ZM78.4286 109.5L89.2649 102.318L85.4088 96.5H78.4286V109.5ZM43.4019 102.318C40.5146 106.675 38.8333 111.911 38.8333 117.5H64.8333C64.8333 117.175 64.9222 116.911 65.0743 116.682L43.4019 102.318ZM38.8333 117.5C38.8333 132.688 51.1455 145 66.3334 145V119C65.5049 119 64.8333 118.328 64.8333 117.5H38.8333ZM66.3334 145C81.5212 145 93.8334 132.688 93.8334 117.5H67.8334C67.8334 118.328 67.1618 119 66.3334 119V145ZM93.8334 117.5C93.8334 111.911 92.1521 106.675 89.2649 102.318L67.5924 116.682C67.7445 116.911 67.8334 117.175 67.8334 117.5H93.8334ZM78.4286 96.5H54.2381V122.5H78.4286V96.5ZM66.3334 102C57.773 102 50.8334 108.94 50.8334 117.5H76.8334C76.8334 123.299 72.1324 128 66.3334 128V102ZM81.8333 117.5C81.8333 108.94 74.8938 102 66.3334 102V128C60.5344 128 55.8333 123.299 55.8333 117.5H81.8333ZM66.3334 133C74.8938 133 81.8333 126.06 81.8333 117.5H55.8333C55.8333 111.701 60.5344 107 66.3334 107V133ZM50.8334 117.5C50.8334 126.06 57.773 133 66.3334 133V107C72.1324 107 76.8334 111.701 76.8334 117.5H50.8334Z" fill="#647387" mask="url(#path-5-inside-3_1233:33)"/>
<rect x="22" y="90" width="87" height="20" rx="9" stroke="#647387" stroke-width="13"/>
</g>
<defs>
<clipPath id="clip0_1233:33">
<rect width="132" height="132" fill="white"/>
</clipPath>
</defs>
</svg>
