<svg width="132" height="132" viewBox="0 0 132 132" fill="none" xmlns="http://www.w3.org/2000/svg">
<path d="M92.0555 39.5979V46.0979H98.5555H118.389C118.422 46.0979 118.451 46.111 118.471 46.131C118.491 46.1506 118.5 46.1749 118.5 46.198V118.8C118.5 120.573 117.794 122.276 116.535 123.534C115.275 124.791 113.564 125.5 111.778 125.5H19.2222C17.4359 125.5 15.7249 124.791 14.4651 123.534C13.2056 122.276 12.5 120.573 12.5 118.8V46.198C12.5 46.1749 12.5091 46.1506 12.5287 46.131C12.5487 46.111 12.5782 46.0979 12.6111 46.0979H32.4444H38.9444V39.5979L38.9444 33.0048C38.9444 33.0037 38.9444 33.0026 38.9444 33.0015C38.949 29.3009 39.7291 25.6419 41.2351 22.2596C42.7415 18.8763 44.941 15.8444 47.6927 13.3595C50.4445 10.8745 53.6875 8.99159 57.2134 7.8324C60.7392 6.67321 64.4694 6.26363 68.1637 6.63021L68.1763 6.63143C72.9912 7.09972 77.4138 8.96789 81.1098 11.8258C76.7381 8.603 71.337 6.69726 65.5 6.69726C50.9855 6.69726 39.1667 18.4811 39.1667 32.9977V39.5979V46.0979H45.6667H85.3333H91.8333V39.5979V32.9977C91.8333 31.5636 91.718 30.1561 91.4961 28.784C91.8629 30.6275 92.0555 32.5303 92.0555 34.4696V39.5979Z" stroke="#647387" stroke-width="13"/>
<rect x="32" y="59" width="14" height="14" rx="6" fill="#647387"/>
<rect x="85" y="59" width="14" height="14" rx="6" fill="#647387"/>
</svg>
