<svg width="150" height="150" viewBox="0 0 150 150" fill="none" xmlns="http://www.w3.org/2000/svg">
<circle cx="75" cy="74.9995" r="75" fill="#FFF3D6"/>
<path d="M109.838 65.7678L121.014 62.102V32.4023C121.014 30.1564 119.614 28.5271 117.687 28.5271H31.8584C29.7762 28.5271 28.5314 29.9204 28.5314 32.4023V55.0825L35.1931 56.8183L42.9092 54.1155L35.7184 62.0982L28.5276 61.3558V75.7527H121.011V68.3601L111.186 70.1987L103.854 67.3057L98.0679 66.5329L104.627 63.2554L109.838 65.7678Z" fill="#ABDEFF"/>
<path d="M93.2904 91.8018H56.2553V97.2529H93.2904V91.8018Z" fill="white"/>
<path d="M80.1535 84.7136H69.392V91.8016H80.1535V84.7136Z" fill="#ABDEFF"/>
<path d="M28.5276 80.8347C28.5276 83.0235 29.681 84.7098 31.8546 84.7098H117.684C119.853 84.7098 121.011 82.9778 121.011 80.8347V75.7566H28.5276V80.8347Z" fill="white"/>
<path d="M33.9102 80.8347V75.7566H28.5276V80.8347C28.5276 83.0235 29.681 84.7098 31.8546 84.7098H37.2373C35.0598 84.7137 33.9102 83.0273 33.9102 80.8347Z" fill="white"/>
<path d="M76.0273 80.3702C76.0273 81.063 75.4639 81.6264 74.7711 81.6264C74.0783 81.6264 73.5187 81.063 73.5187 80.3702C73.5187 79.6774 74.0821 79.114 74.7711 79.114C75.4639 79.1178 76.0273 79.6812 76.0273 80.3702Z" fill="#FFB800"/>
<path d="M73.5184 84.7136H69.392V91.8016H73.5184V84.7136Z" fill="#C7E9FF"/>
<path d="M60.458 91.8018H56.3315V97.2529H60.458V91.8018Z" fill="white"/>
<path d="M33.9118 28.5271H31.86C29.7777 28.5271 28.533 29.9204 28.533 32.4023V55.0824L33.9156 56.4833V28.5271H33.9118Z" fill="#C7E9FF"/>
<path d="M28.5276 61.3596V75.7602H33.9102V61.9154L28.5276 61.3596Z" fill="#C7E9FF"/>
<path d="M112.819 101.341H36.6283V121.113H112.819V101.341Z" fill="white"/>
<path d="M48.463 105.97H43.2365V110.02H48.463V105.97Z" fill="#FFB800"/>
<path d="M58.0332 105.97H52.8066V110.02H58.0332V105.97Z" fill="#FFB800"/>
<path d="M67.7212 105.97H62.4946V110.02H67.7212V105.97Z" fill="#FFB800"/>
<path d="M77.2912 105.97H72.0646V110.02H77.2912V105.97Z" fill="#FFB800"/>
<path d="M87.6148 105.97H82.3882V110.02H87.6148V105.97Z" fill="#FFB800"/>
<path d="M97.181 105.97H91.9544V110.02H97.181V105.97Z" fill="#FFB800"/>
<path d="M106.873 105.97H101.646V110.02H106.873V105.97Z" fill="#FFB800"/>
<path d="M48.463 112.719H43.2365V116.77H48.463V112.719Z" fill="#FFB800"/>
<path d="M58.0332 112.719H52.8066V116.77H58.0332V112.719Z" fill="#FFB800"/>
<path d="M87.611 112.719H62.4946V116.77H87.611V112.719Z" fill="#FFB800"/>
<path d="M97.181 112.719H91.9544V116.77H97.181V112.719Z" fill="#FFB800"/>
<path d="M106.873 112.719H101.646V116.77H106.873V112.719Z" fill="#FFB800"/>
<path d="M39.8945 101.341H36.6283V121.113H39.8945V101.341Z" fill="white"/>
<ellipse cx="74.5121" cy="51.8965" rx="11.6103" ry="11.6104" fill="#FFB800"/>
<path d="M68.4 46H75.02C76.5533 46 77.9133 46.2867 79.1 46.86C80.2867 47.4333 81.2067 48.2467 81.86 49.3C82.5133 50.3533 82.84 51.5867 82.84 53C82.84 54.4133 82.5133 55.6467 81.86 56.7C81.2067 57.7533 80.2867 58.5667 79.1 59.14C77.9133 59.7133 76.5533 60 75.02 60H68.4V46ZM74.86 56.84C76.06 56.84 77.02 56.5 77.74 55.82C78.4733 55.14 78.84 54.2 78.84 53C78.84 51.8 78.4733 50.86 77.74 50.18C77.02 49.5 76.06 49.16 74.86 49.16H72.36V56.84H74.86Z" fill="white"/>
</svg>
