<svg width="150" height="150" viewBox="0 0 150 150" fill="none" xmlns="http://www.w3.org/2000/svg">
<circle cx="75" cy="74.9995" r="75" fill="#FFF3D6"/>
<path d="M55.33 46.8334V62.3138C55.33 72.9075 66.1634 77.1646 74.5108 77.1646H75.1404C83.4919 77.1646 94.3213 72.9116 94.3213 62.3138V46.8334H55.33Z" fill="white"/>
<path d="M59.6641 62.3138V46.8334H55.33V62.3138C55.33 72.9075 66.1634 77.1646 74.5108 77.1646H75.1404C75.7457 77.1646 76.3671 77.136 76.9927 77.0914C68.9783 76.5105 59.6641 72.1439 59.6641 62.3138Z" fill="white"/>
<path d="M75.1444 77.1645H74.5148C73.219 77.1645 71.8623 77.0467 70.4974 76.8354V83.6637L74.8316 92.328L79.1658 83.6637V76.8354C77.7969 77.0507 76.4361 77.1645 75.1444 77.1645Z" fill="white"/>
<path d="M75.173 23.0056H74.4784C62.8244 23.0056 53.1609 32.4539 53.1609 44.1078V46.8375H96.4905V44.1078C96.4905 32.4498 86.831 23.0056 75.173 23.0056Z" fill="#6FC6FF"/>
<path d="M76.9927 23.095C76.3916 23.0422 75.7863 23.0056 75.173 23.0056H74.4784C62.8244 23.0056 53.1609 32.4539 53.1609 44.1078V46.8375H57.495V44.1078C57.495 33.0632 66.1715 24.0211 76.9927 23.095Z" fill="#ABDEFF"/>
<path d="M61.8292 103.162L55.33 96.6623L61.8292 83.6638H54.8101C47.9209 83.6638 42.3315 88.9078 42.3315 95.793V126.989H61.8292L57.495 118.325L61.8292 103.162Z" fill="white"/>
<path d="M59.1443 83.6638H54.8101C47.9209 83.6638 42.3315 88.9078 42.3315 95.793V126.989H46.6657V95.793C46.6657 88.9078 52.251 83.6638 59.1443 83.6638Z" fill="white"/>
<path d="M61.8292 83.6638L55.33 96.6623L61.8292 103.162L57.495 118.329L61.8292 126.993H72.6626L66.1633 83.6638H61.8292Z" fill="white"/>
<path d="M66.1633 103.162L59.6641 96.6623L66.1633 83.6638H61.8292L55.33 96.6623L61.8292 103.162L57.495 118.329L61.8292 126.993H66.1633L61.8292 118.329L66.1633 103.162Z" fill="white"/>
<path d="M87.826 103.162L94.3253 96.6623L87.826 83.6638H94.8452C101.734 83.6638 107.324 88.9078 107.324 95.793V126.989H87.826L92.1602 118.325L87.826 103.162Z" fill="white"/>
<path d="M87.8262 83.6638L94.3255 96.6623L87.8262 103.162L92.1604 118.329L87.8262 126.993H76.9928L83.4921 83.6638H87.8262Z" fill="white"/>
<path d="M94.3254 96.6623L87.8262 83.6638H83.4921L89.9913 96.6623L83.4921 103.162L87.8262 118.329L83.4921 126.993H87.8262L92.1604 118.329L87.8262 103.162L94.3254 96.6623Z" fill="white"/>
<path d="M79.1618 83.6638L74.8277 92.3321L70.4935 83.6638H66.1633L72.6626 126.993H76.9927L83.492 83.6638H79.1618Z" fill="#6FC6FF"/>
<path d="M66.1633 83.6638L72.6626 126.993H74.8277L68.3284 83.6638H66.1633Z" fill="#ABDEFF"/>
<path d="M55.3298 49.0026C50.9956 49.0026 48.8306 50.144 48.8306 53.3367V57.671C48.8306 60.8596 50.9956 62.0051 55.3298 62.0051V49.0026Z" fill="white"/>
<path d="M50.9956 57.6669V53.3326C50.9956 50.7329 52.458 49.5104 55.3298 49.1407V49.0026C50.9956 49.0026 48.8306 50.144 48.8306 53.3367V57.671C48.8306 60.8596 50.9956 62.0051 55.3298 62.0051V61.867C52.458 61.4892 50.9956 60.2666 50.9956 57.6669Z" fill="white"/>
<path d="M94.3253 49.0026C98.6595 49.0026 100.825 50.144 100.825 53.3367V57.671C100.825 60.8596 98.6595 62.0051 94.3253 62.0051V49.0026Z" fill="white"/>
<path d="M84.6659 59.8319H64.9895L55.33 48.5638V55.2175L61.8292 62.8012V73.7362C65.5744 76.1084 70.3513 77.1646 74.5108 77.1646H75.1404C79.2999 77.1646 84.0769 76.1084 87.822 73.7362V62.8012L94.3213 55.2175V48.5638L84.6659 59.8319Z" fill="#6FC6FF"/>
<path d="M66.1633 73.7362V64.9663L59.6641 57.3825V53.6171L55.33 48.5638V55.2175L61.8292 62.8012V73.7362C65.5744 76.1084 70.3513 77.1646 74.5108 77.1646H75.1404C75.7457 77.1646 76.3671 77.1361 76.9927 77.0914C73.3166 76.8233 69.3642 75.7631 66.1633 73.7362Z" fill="#ABDEFF"/>
<path d="M83.4053 39.5623C84.1718 34.8389 80.9643 30.3884 76.2408 29.6218C71.5174 28.8552 67.0668 32.0629 66.3003 36.7863C65.5337 41.5097 68.7414 45.9603 73.4648 46.7269C78.1882 47.4935 82.6387 44.2858 83.4053 39.5623Z" fill="#FFCA00"/>
<path d="M70.4935 38.1692C70.4935 34.1357 73.2638 30.7763 76.9927 29.8096C76.2981 29.6308 75.5791 29.5009 74.8277 29.5009C70.0426 29.5009 66.1633 33.3801 66.1633 38.1652C66.1633 42.9502 70.0426 46.8294 74.8277 46.8294C75.5791 46.8294 76.2981 46.7035 76.9927 46.5207C73.2638 45.562 70.4935 42.2028 70.4935 38.1692Z" fill="#FFDA4B"/>
<path d="M74.8277 33.8349C74.8277 33.8349 70.4935 32.5879 70.4935 36C70.4935 38.1651 71.8543 37.8198 71.8543 39.5299C71.8543 41.9671 72.3621 42.4992 73.341 42.4992C73.341 42.4992 73.3654 38.0432 74.8277 38.0432C76.2901 38.0432 76.3144 42.4992 76.3144 42.4992C77.2934 42.4992 77.8011 41.9671 77.8011 39.5299C77.8011 37.8238 79.1619 38.1691 79.1619 36C79.1619 32.592 74.8277 33.8349 74.8277 33.8349Z" fill="white"/>
<path d="M72.6626 36.0041C72.6626 34.5377 73.471 33.9527 74.3809 33.7415C73.2964 33.5303 70.4935 33.246 70.4935 36.0041C70.4935 38.1692 71.8543 37.8239 71.8543 39.534C71.8543 41.9712 72.3621 42.5033 73.341 42.5033C73.341 42.5033 73.3613 40.1677 73.926 38.88C73.6254 37.8808 72.6626 37.832 72.6626 36.0041Z" fill="white"/>
</svg>
